<svg width="26" height="26" viewBox="0 0 26 26" fill="none" xmlns="http://www.w3.org/2000/svg">
<path d="M12.0853 0H13.9097L14.7744 0.112356C17.4824 0.492818 20.0009 1.71955 21.97 3.61719C23.939 5.51482 25.2579 7.98627 25.7381 10.6784C25.8246 11.128 25.8765 11.5431 25.937 12.0446V13.7739C25.8678 14.2494 25.8246 14.725 25.7381 15.1919C25.3677 17.3342 24.4594 19.3473 23.0983 21.0427C21.7372 22.738 19.9679 24.0599 17.9563 24.8846C17.5153 25.0748 17.0916 25.2132 16.5728 25.3861V15.8058H19.3484L19.7634 12.5807H16.5815C16.5815 11.716 16.5815 10.8514 16.5815 9.9867C16.5827 9.73194 16.6792 9.48685 16.852 9.29964C17.0248 9.11243 17.2614 8.99661 17.5153 8.97503C17.8384 8.92301 18.1651 8.89702 18.4923 8.89724H19.8412V5.98337C18.8209 5.98337 17.8179 5.93149 16.8236 5.98337C16.1506 5.99459 15.4955 6.20193 14.9386 6.57998C14.4081 6.9243 13.9721 7.39573 13.6701 7.95142C13.368 8.50711 13.2097 9.12943 13.2093 9.76189C13.2093 10.6265 13.2093 11.4912 13.2093 12.3558C13.2093 12.4423 13.2093 12.5374 13.2093 12.6584H10.4511V15.8836H13.2007V26C12.656 26 12.1372 26 11.6184 25.9136C9.36233 25.6972 7.20896 24.8657 5.3929 23.5098C3.45846 22.1554 1.94114 20.2873 1.01221 18.1162C0.0832804 15.9451 -0.220275 13.5576 0.135818 11.2231C0.433754 8.75926 1.47761 6.4453 3.12752 4.59129C5.06945 2.29614 7.76255 0.764225 10.7278 0.26804C11.1861 0.112402 11.6357 0.0605255 12.0853 0Z" fill="white"/>
</svg>
