<svg width="131" height="46" viewBox="0 0 131 46" fill="none" xmlns="http://www.w3.org/2000/svg">
<rect x="-1.75" y="1.75" width="26.6476" height="41.2191" transform="matrix(-1 0 0 1 26.6476 0.640472)" stroke="#FFB800" stroke-width="3.5"/>
<path d="M45.4498 16.5983H43.6229C41.212 13.7082 38.8011 10.8331 36.4351 7.6136V16.5983H34.3687V4.01971H36.2255C38.6214 6.89483 41.0173 9.75497 43.3833 13.0044V4.01971H45.4049L45.4498 16.5983Z" fill="black"/>
<path d="M52.5927 15.7298C51.9572 16.3237 51.1499 16.7011 50.2866 16.808C49.9367 16.8065 49.5907 16.7338 49.2698 16.5942C48.9489 16.4546 48.6598 16.251 48.4201 15.996C48.1805 15.7409 47.9954 15.4398 47.876 15.1108C47.7567 14.7818 47.7056 14.432 47.726 14.0826C47.726 12.3755 48.9689 11.4021 51.0503 10.8181L53.1617 10.1892C53.1 9.80455 52.9003 9.45554 52.5998 9.20748C52.2994 8.95943 51.9189 8.82933 51.5295 8.84153C50.6533 8.83398 49.8073 9.16061 49.1635 9.75496L48.3848 8.61687C49.3494 7.80087 50.581 7.36904 51.844 7.40394C53.4912 7.40394 55.5127 7.94304 55.5127 10.7433V14.3971C55.4882 15.1499 55.6208 15.8996 55.9021 16.5983H53.3564C53.1796 16.1827 53.1026 15.7313 53.1318 15.2806L52.5927 15.7298ZM51.844 11.8215C51.3506 11.8968 50.9008 12.147 50.5764 12.5263C50.2521 12.9056 50.0748 13.3889 50.0769 13.8879C50.0604 14.0454 50.0752 14.2046 50.1206 14.3563C50.1659 14.508 50.2409 14.6491 50.3412 14.7717C50.4414 14.8942 50.565 14.9957 50.7047 15.0702C50.8444 15.1447 50.9975 15.1908 51.1551 15.2057C52.0985 15.2057 53.3414 14.0227 53.1617 11.3872L51.844 11.8215Z" fill="black"/>
<path d="M60.664 7.6136H63.015V8.84152H60.664V13.259C60.664 14.7564 61.1132 15.3554 61.8919 15.3554C62.2953 15.3536 62.6917 15.2507 63.0449 15.056L63.4642 16.2389C62.7364 16.6114 61.9308 16.8064 61.1132 16.808C60.7245 16.8609 60.3289 16.8227 59.9574 16.6964C59.586 16.5702 59.249 16.3593 58.9731 16.0805C58.6972 15.8016 58.4899 15.4625 58.3675 15.0898C58.2451 14.7171 58.2111 14.321 58.2681 13.9329V8.84152H57.0102V7.6136H58.328V5.45726L60.7239 4.91815L60.664 7.6136Z" fill="black"/>
<path d="M64.6023 4.91825C64.6099 4.55527 64.7575 4.20931 65.0143 3.95259C65.271 3.69587 65.6169 3.54826 65.9799 3.54061C66.285 3.51704 66.59 3.58749 66.8539 3.74251C67.1177 3.89753 67.3277 4.12966 67.4556 4.40766C67.5835 4.68565 67.6232 4.99619 67.5693 5.29741C67.5154 5.59863 67.3705 5.8761 67.1542 6.09248C66.9378 6.30886 66.6603 6.45375 66.3591 6.50765C66.0579 6.56155 65.7473 6.52187 65.4693 6.39395C65.1913 6.26604 64.9592 6.05603 64.8042 5.79219C64.6492 5.52835 64.5787 5.22335 64.6023 4.91825ZM67.2228 7.6137V16.5984H64.8269V7.6137H67.2228Z" fill="black"/>
<path d="M69.1545 12.0012C69.1722 11.0723 69.4638 10.1693 69.9928 9.40547C70.5217 8.64167 71.2645 8.05108 72.1278 7.7078C72.9911 7.36453 73.9366 7.28386 74.8456 7.47588C75.7546 7.66791 76.5866 8.12409 77.2374 8.78721C77.8881 9.45033 78.3285 10.2908 78.5033 11.2033C78.6782 12.1158 78.5797 13.0596 78.2201 13.9163C77.8606 14.7729 77.2562 15.5044 76.4825 16.0188C75.7089 16.5333 74.8006 16.8078 73.8715 16.808C73.2355 16.8414 72.5997 16.7393 72.0062 16.5083C71.4127 16.2774 70.8751 15.9229 70.429 15.4683C69.983 15.0138 69.6386 14.4695 69.4189 13.8718C69.1992 13.274 69.1091 12.6364 69.1545 12.0012ZM76.0578 12.0012C76.0578 10.5037 75.5337 8.72172 73.8715 8.72172C72.2093 8.72172 71.7002 10.5037 71.7002 12.0012C71.7002 13.4986 72.1644 15.4753 73.8715 15.4753C75.5786 15.4753 76.0578 13.5735 76.0578 12.0012Z" fill="black"/>
<path d="M82.9012 8.67684C83.2893 8.27444 83.7546 7.95436 84.2691 7.73567C84.7837 7.51699 85.337 7.40417 85.8961 7.40399C88.0075 7.40399 89.1156 8.54206 89.1156 10.8182V16.5984H86.7796V11.0878C86.7796 9.8299 86.2105 8.99129 84.9826 8.99129C84.6922 8.98086 84.4029 9.03319 84.1345 9.1447C83.866 9.25622 83.6248 9.42432 83.4273 9.63752C83.2297 9.85071 83.0805 10.104 82.9897 10.3801C82.8989 10.6562 82.8687 10.9486 82.9012 11.2375V16.5984H80.5052V7.61366H82.8713L82.9012 8.67684Z" fill="black"/>
<path d="M96.0638 15.7298C95.4283 16.3238 94.621 16.7012 93.7577 16.808C93.4078 16.8066 93.0618 16.7338 92.7409 16.5942C92.42 16.4546 92.1309 16.2511 91.8913 15.996C91.6516 15.741 91.4665 15.4398 91.3471 15.1109C91.2278 14.7819 91.1768 14.432 91.1971 14.0827C91.1971 12.3756 92.425 11.4022 94.5215 10.8182L96.6328 10.1893C96.5682 9.80599 96.3676 9.45879 96.0679 9.21129C95.7681 8.96379 95.3892 8.83257 95.0006 8.84159C94.1245 8.83404 93.2784 9.16067 92.6347 9.75501L91.856 8.61693C92.8146 7.80068 94.0416 7.36855 95.3001 7.404C96.9623 7.404 98.9839 7.9431 98.9839 10.7433V14.3971C98.9617 15.1484 99.0889 15.8967 99.3583 16.5984H96.8275C96.6507 16.1827 96.5738 15.7314 96.6029 15.2806L96.0638 15.7298ZM95.3001 11.8215C94.8095 11.9001 94.3632 12.1517 94.0419 12.5307C93.7206 12.9097 93.5454 13.3911 93.5481 13.888C93.5315 14.0455 93.5464 14.2046 93.5917 14.3563C93.6371 14.508 93.7121 14.6492 93.8123 14.7717C93.9126 14.8943 94.0361 14.9957 94.1758 15.0702C94.3156 15.1447 94.4686 15.1908 94.6262 15.2058C95.5696 15.2058 96.8125 14.0228 96.6328 11.3872L95.3001 11.8215Z" fill="black"/>
<path d="M101.305 16.5983V3.34586H103.701V16.5534L101.305 16.5983Z" fill="black"/>
<path d="M44.9856 32.4115V37.6077C43.6326 38.0846 42.2121 38.3424 40.7777 38.3714C36.4351 38.3714 33.6948 35.4963 33.6948 31.7976C33.6948 28.3684 36.4201 25.3735 40.8526 25.3735C42.1165 25.3672 43.3585 25.7035 44.4465 26.3468L43.6379 27.8443C42.7958 27.4226 41.8692 27.1974 40.9275 27.1854C40.3159 27.1625 39.7065 27.2691 39.139 27.4983C38.5715 27.7274 38.0589 28.0739 37.6347 28.5151C37.2105 28.9562 36.8844 29.482 36.6777 30.058C36.4709 30.6341 36.3883 31.2473 36.4351 31.8575C36.3923 32.5976 36.5333 33.3367 36.8455 34.0091C37.1577 34.6815 37.6315 35.2661 38.2246 35.7109C38.8176 36.1557 39.5115 36.4468 40.2444 36.5583C40.9773 36.6698 41.7265 36.5982 42.425 36.3498V32.4864L44.9856 32.4115Z" fill="black"/>
<path d="M49.8822 33.879C49.8406 34.2511 49.8769 34.6278 49.9888 34.985C50.1007 35.3423 50.2859 35.6723 50.5324 35.9541C50.7789 36.2358 51.0815 36.4631 51.4207 36.6215C51.76 36.7799 52.1285 36.8659 52.5028 36.8739C53.3585 36.8688 54.1949 36.6195 54.9137 36.1551L55.5876 37.413C54.523 38.0505 53.3093 38.3966 52.0686 38.4163C51.4277 38.4385 50.7892 38.3262 50.1943 38.0869C49.5993 37.8476 49.061 37.4865 48.6139 37.0268C48.1669 36.567 47.821 36.0188 47.5984 35.4174C47.3758 34.816 47.2815 34.1746 47.3216 33.5346C47.3044 32.9323 47.4119 32.3329 47.6372 31.7741C47.8626 31.2153 48.201 30.7092 48.6313 30.2873C49.0615 29.8655 49.5743 29.5372 50.1375 29.3229C50.7006 29.1086 51.302 29.0131 51.9038 29.0422C54.7041 29.0422 55.8721 31.2884 55.6924 33.9539L49.8822 33.879ZM53.4462 32.5912C53.536 31.2285 53.0569 30.3001 51.8739 30.3001C51.5884 30.3036 51.307 30.368 51.0484 30.4889C50.7898 30.6099 50.56 30.7846 50.3743 31.0015C50.1886 31.2183 50.0514 31.4723 49.9717 31.7464C49.892 32.0206 49.8717 32.3086 49.9122 32.5912H53.4462Z" fill="black"/>
<path d="M57.1599 33.5645C57.1776 32.635 57.4696 31.7315 57.9993 30.9674C58.5289 30.2032 59.2725 29.6127 60.1367 29.2698C61.0009 28.927 61.9471 28.8472 62.8565 29.0405C63.7659 29.2337 64.5979 29.6914 65.248 30.356C65.8981 31.0206 66.3374 31.8625 66.5105 32.7759C66.6837 33.6894 66.583 34.6336 66.2212 35.49C65.8594 36.3464 65.2526 37.0769 64.477 37.5895C63.7014 38.1022 62.7916 38.3742 61.8619 38.3714C61.2271 38.4027 60.593 38.2989 60.0013 38.067C59.4096 37.835 58.8739 37.4802 58.4295 37.0259C57.9851 36.5716 57.6421 36.0281 57.4233 35.4314C57.2044 34.8348 57.1146 34.1985 57.1599 33.5645ZM64.0482 33.5645C64.0482 32.0671 63.539 30.3001 61.8619 30.3001C60.1847 30.3001 59.6906 32.0671 59.6906 33.5645C59.6906 35.062 60.1548 37.0387 61.8619 37.0387C63.569 37.0387 64.0482 35.1369 64.0482 33.5645Z" fill="black"/>
<path d="M77.3007 37.353C77.3007 41.3363 74.9647 42.654 72.2842 42.654C70.9778 42.6605 69.6871 42.3686 68.5106 41.8005L68.9748 40.303C69.9261 40.8452 71.0104 41.1098 72.1045 41.0667C72.4946 41.0869 72.8843 41.0217 73.2465 40.8755C73.6086 40.7294 73.9345 40.5058 74.2012 40.2205C74.4679 39.9353 74.6691 39.5951 74.7906 39.224C74.9122 38.8528 74.9511 38.4596 74.9048 38.0718V36.8739C74.5732 37.3316 74.1391 37.7053 73.6373 37.9653C73.1355 38.2254 72.5798 38.3644 72.0147 38.3713C69.6188 38.3713 68.0614 36.4396 68.0614 33.5645C68.0314 32.41 68.4471 31.2883 69.2223 30.4323C69.9975 29.5762 71.0725 29.0516 72.2243 28.9673C72.7434 28.9498 73.2589 29.0593 73.7261 29.2864C74.1932 29.5134 74.5978 29.8511 74.9048 30.2701V29.1769H77.3007V37.353ZM70.5622 33.5046C70.5622 35.2416 71.251 36.9337 72.6286 36.9337C74.0063 36.9337 74.9048 35.2117 74.9048 33.4147C74.9048 31.9173 74.171 30.4198 72.7335 30.4198C71.2959 30.4198 70.5622 31.7975 70.5622 33.5046Z" fill="black"/>
<path d="M82.1075 30.7643L82.5867 30.0604C82.8712 29.6861 83.3953 28.9673 84.0842 28.9673C84.3943 28.9862 84.6974 29.0676 84.9753 29.2065C85.2533 29.3455 85.5002 29.5391 85.7014 29.7759L84.8029 31.4231C84.4627 31.2231 84.0745 31.1195 83.6798 31.1236C82.8562 31.1236 82.0476 31.7825 82.0476 33.7292V38.2216H79.6517V29.2369H82.0177L82.1075 30.7643Z" fill="black"/>
<path d="M91.3618 37.2933C90.7339 37.8896 89.9304 38.2677 89.0707 38.3714C88.7195 38.372 88.3719 38.3007 88.0492 38.162C87.7265 38.0233 87.4356 37.8202 87.1944 37.5649C86.9532 37.3096 86.7667 37.0077 86.6464 36.6778C86.5262 36.3478 86.4747 35.9967 86.4951 35.6461C86.4951 33.939 87.738 32.9656 89.8194 32.3816L91.9458 31.7527C91.8783 31.3707 91.6769 31.0253 91.3778 30.7784C91.0787 30.5314 90.7014 30.399 90.3136 30.405C89.4326 30.3951 88.581 30.7218 87.9326 31.3184L87.169 30.1804C88.1261 29.3616 89.3541 28.9291 90.6131 28.9674C92.2603 28.9674 94.2968 29.5065 94.2968 32.3067V35.9755C94.2758 36.7218 94.403 37.4649 94.6712 38.1618H92.1405C91.9585 37.7473 91.8765 37.296 91.9009 36.844L91.3618 37.2933ZM90.6131 33.3849C90.1225 33.4635 89.6762 33.7151 89.3549 34.0941C89.0335 34.4731 88.8584 34.9545 88.8611 35.4514C88.8445 35.6088 88.8594 35.768 88.9047 35.9197C88.9501 36.0714 89.0251 36.2126 89.1253 36.3351C89.2256 36.4577 89.3491 36.5591 89.4888 36.6336C89.6285 36.7081 89.7816 36.7542 89.9392 36.7691C90.8826 36.7691 92.1255 35.5861 91.9458 32.9506L90.6131 33.3849Z" fill="black"/>
<path d="M99.0138 30.4198C99.3422 29.9625 99.7735 29.5887 100.273 29.3286C100.772 29.0685 101.326 28.9293 101.889 28.9224C102.449 28.9447 102.998 29.0801 103.504 29.3205C104.01 29.5608 104.462 29.9012 104.833 30.321C105.203 30.7408 105.485 31.2313 105.661 31.763C105.838 32.2947 105.904 32.8566 105.857 33.4148C105.857 35.7807 104.24 38.3115 101.664 38.3115C101.146 38.3032 100.637 38.1792 100.173 37.9486C99.7094 37.718 99.3031 37.3866 98.9839 36.9787V42.5942H96.5879V29.1171H98.9839L99.0138 30.4198ZM99.0138 33.7742C99.0138 35.661 99.9273 36.9338 101.215 36.9338C102.817 36.9338 103.356 35.077 103.356 33.4897C103.356 31.9024 102.668 30.4049 101.305 30.4049C99.9422 30.4049 99.0138 31.7077 99.0138 33.7742Z" fill="black"/>
<path d="M110.2 30.3001C110.597 29.8885 111.074 29.5631 111.602 29.3441C112.13 29.1251 112.698 29.0172 113.27 29.0272C115.366 29.0272 116.489 30.1803 116.489 32.4414V38.2216H114.093V32.711C114.093 31.4531 113.539 30.6145 112.296 30.6145C112.006 30.6041 111.716 30.6564 111.448 30.7679C111.18 30.8795 110.938 31.0476 110.741 31.2608C110.543 31.474 110.394 31.7273 110.303 32.0034C110.212 32.2795 110.182 32.5719 110.215 32.8607V38.2216H107.834V25.0141H110.2V30.3001Z" fill="black"/>
<path d="M118.705 26.4816C118.713 26.1186 118.861 25.7726 119.117 25.5159C119.374 25.2591 119.72 25.1115 120.083 25.1039C120.388 25.0803 120.693 25.1508 120.957 25.3058C121.221 25.4608 121.431 25.6929 121.559 25.9709C121.687 26.2489 121.726 26.5594 121.672 26.8607C121.618 27.1619 121.474 27.4394 121.257 27.6557C121.041 27.8721 120.763 28.017 120.462 28.0709C120.161 28.1248 119.85 28.0852 119.572 27.9573C119.294 27.8293 119.062 27.6193 118.907 27.3555C118.752 27.0916 118.682 26.7867 118.705 26.4816ZM121.326 29.177V38.1617H118.93V29.177H121.326Z" fill="black"/>
<path d="M130.775 37.6675C130 38.115 129.124 38.3572 128.229 38.3714C127.591 38.417 126.95 38.3296 126.346 38.1147C125.743 37.8998 125.191 37.5622 124.726 37.123C124.26 36.6839 123.89 36.1529 123.64 35.5636C123.39 34.9742 123.265 34.3394 123.273 33.6993C123.314 32.8435 123.575 32.0127 124.028 31.286C124.482 30.5594 125.115 29.9611 125.866 29.5482C126.616 29.1353 127.46 28.9215 128.317 28.9273C129.174 28.9331 130.015 29.1582 130.76 29.5812L130.176 30.9589C129.923 30.8513 129.663 30.7613 129.397 30.6894C129.134 30.6178 128.862 30.5825 128.589 30.5846C128.207 30.5801 127.828 30.6568 127.478 30.8096C127.128 30.9625 126.815 31.1879 126.558 31.4711C126.302 31.7543 126.109 32.0887 125.992 32.4522C125.874 32.8157 125.836 33.1999 125.878 33.5795C125.83 33.9703 125.864 34.3669 125.978 34.7439C126.092 35.1208 126.283 35.4699 126.54 35.7687C126.796 36.0675 127.112 36.3094 127.468 36.4791C127.823 36.6488 128.21 36.7424 128.604 36.7541C129.217 36.7582 129.82 36.6034 130.356 36.3049L130.775 37.6675Z" fill="black"/>
</svg>
