<svg width="26" height="26" viewBox="0 0 26 26" fill="none" xmlns="http://www.w3.org/2000/svg">
<path fill-rule="evenodd" clip-rule="evenodd" d="M12.085 0H13.9189L14.7881 0.121699C17.5088 0.505851 20.0386 1.73974 22.0162 3.64719C23.9939 5.55464 25.3185 8.03811 25.8007 10.7431C25.8469 11.0099 25.884 11.2827 25.9209 11.5544L25.9209 11.5545C25.9465 11.7432 25.9721 11.9313 26.0006 12.1164V13.9678C25.9975 14.0315 25.9975 14.0953 26.0006 14.159C25.9577 14.4048 25.9214 14.6516 25.8852 14.8977C25.8113 15.4001 25.7378 15.9 25.6095 16.3842C24.7341 19.6024 22.6587 22.3628 19.8101 24.0975C16.9616 25.8323 13.5566 26.4094 10.2955 25.7102C7.03444 25.011 4.16531 23.0887 2.27835 20.3386C0.391392 17.5886 -0.369914 14.2199 0.151047 10.9257C0.590322 8.25703 1.84863 5.79104 3.75167 3.86932C5.65471 1.94759 8.10827 0.665226 10.7725 0.199896C11.198 0.121737 11.6409 0.0609489 12.0838 0.00015891L12.085 0ZM19.5252 13.0378V10.4302C19.531 9.90918 19.433 9.39218 19.2371 8.90936C19.0411 8.42653 18.7511 7.98755 18.3839 7.61789C18.0166 7.24823 17.5795 6.9553 17.098 6.75618C16.6165 6.55707 16.1001 6.4557 15.5791 6.45804H10.4248C10.1621 6.45824 9.90008 6.48447 9.64254 6.53629C8.72855 6.70505 7.90617 7.19797 7.32653 7.92452C6.74689 8.65107 6.44893 9.56242 6.48741 10.4911V15.6106C6.48159 16.1327 6.58013 16.6507 6.77725 17.1342C6.97437 17.6177 7.2661 18.0569 7.63531 18.4261C8.00452 18.7954 8.44377 19.0871 8.92727 19.2842C9.41077 19.4813 9.92878 19.5799 10.4509 19.5741H15.5704C15.8328 19.5768 16.0948 19.5535 16.3527 19.5045C17.2515 19.3365 18.062 18.8562 18.6409 18.1484C19.2199 17.4406 19.53 16.5509 19.5165 15.6366C19.5252 14.7588 19.5252 13.907 19.5252 13.0986V13.0378ZM18.1953 13.0986V15.8974C18.1659 16.5157 17.9077 17.1011 17.4707 17.5397C17.0338 17.9782 16.4494 18.2386 15.8312 18.2703H10.1554C9.54261 18.2385 8.96364 17.9796 8.53138 17.5441C8.09911 17.1086 7.84453 16.5278 7.81727 15.9148C7.7825 14.0257 7.7825 12.1396 7.81727 10.2564C7.84319 9.63468 8.10294 9.04576 8.54453 8.60739C8.98612 8.16903 9.57697 7.91358 10.1988 7.89221H15.8225C16.4381 7.92521 17.0202 8.18349 17.4577 8.61784C17.8953 9.0522 18.1578 9.63227 18.1953 10.2477C18.1993 10.3229 18.1993 10.3984 18.1953 10.4737V13.0812V13.0986ZM12.9802 9.71748C12.3157 9.7192 11.6665 9.91772 11.1147 10.288C10.5629 10.6583 10.1331 11.1837 9.87957 11.798C9.62606 12.4123 9.56017 13.0879 9.69024 13.7396C9.82031 14.3913 10.1405 14.9899 10.6104 15.4598C11.0803 15.9297 11.6789 16.2499 12.3306 16.3799C12.9823 16.51 13.6579 16.4441 14.2722 16.1906C14.8864 15.9371 15.4119 15.5073 15.7821 14.9555C16.1524 14.4036 16.3509 13.7545 16.3527 13.0899C16.3607 12.6442 16.2799 12.2014 16.115 11.7873C15.95 11.3732 15.7041 10.9961 15.3918 10.6781C15.0794 10.3601 14.7068 10.1075 14.2957 9.9351C13.8847 9.7627 13.4434 9.67396 12.9976 9.67403L12.9802 9.71748ZM16.3787 8.8483C16.205 8.84851 16.0354 8.90081 15.8916 8.99838C15.7479 9.09595 15.6367 9.23431 15.5724 9.39567C15.5081 9.55704 15.4936 9.73401 15.5308 9.90369C15.568 10.0734 15.6552 10.228 15.7812 10.3477C15.9071 10.4673 16.066 10.5465 16.2374 10.5749C16.4088 10.6034 16.5847 10.5799 16.7426 10.5074C16.9004 10.4349 17.033 10.3167 17.123 10.1682C17.2131 10.0197 17.2566 9.84753 17.2479 9.67403C17.2391 9.45256 17.146 9.24282 16.9877 9.08772C16.8293 8.93261 16.6177 8.84385 16.3961 8.8396L16.3787 8.8483ZM14.1646 11.3239C13.825 11.0943 13.4249 10.9709 13.015 10.9691C12.47 10.969 11.9468 11.1832 11.5582 11.5652C11.1696 11.9473 10.9468 12.4668 10.9376 13.0117C10.9325 13.4216 11.0492 13.8237 11.2729 14.1671C11.4967 14.5105 11.8174 14.7797 12.1944 14.9405C12.5714 15.1014 12.9877 15.1466 13.3905 15.0704C13.7932 14.9943 14.1642 14.8002 14.4565 14.5128C14.7488 14.2254 14.9491 13.8577 15.032 13.4563C15.1149 13.0549 15.0768 12.638 14.9223 12.2583C14.7679 11.8786 14.5041 11.5534 14.1646 11.3239Z" fill="white"/>
</svg>
