<svg width="26" height="26" viewBox="0 0 26 26" fill="none" xmlns="http://www.w3.org/2000/svg">
<path d="M25.991 12.1073V13.9039C25.9696 13.9752 25.9522 14.0476 25.939 14.1209C25.8784 14.5635 25.8524 14.9888 25.7658 15.4314C25.1174 18.8217 23.1517 21.8152 20.301 23.7536C17.4502 25.6921 13.9479 26.4167 10.564 25.7681C7.8254 25.2884 5.32704 23.9008 3.46985 21.8279C2.14785 20.427 1.16013 18.7441 0.581003 16.9055C0.00187319 15.067 -0.153582 13.1208 0.126334 11.2134C0.443598 8.73535 1.49683 6.41004 3.14936 4.53919C5.09208 2.24534 7.7781 0.709202 10.7372 0.199654C11.179 0.121543 11.6034 0.0694325 12.0885 0H13.9075C14.3233 0.0520744 14.7737 0.0954718 15.1375 0.164904C17.7858 0.615013 20.2306 1.87382 22.1376 3.76912C24.0447 5.66442 25.3209 8.10368 25.7917 10.7534C25.8697 11.2047 25.939 11.656 25.991 12.1073ZM14.1241 19.6755V19.3544C14.1241 17.7053 14.1241 16.0476 14.1241 14.3986C14.0983 13.9026 14.2555 13.4145 14.5658 13.0273C14.7674 12.7734 15.0396 12.5852 15.348 12.4863C15.6563 12.3875 15.987 12.3824 16.2982 12.4718C16.573 12.5322 16.823 12.675 17.0148 12.8812C17.2067 13.0874 17.3314 13.3472 17.3723 13.6261C17.4371 13.8698 17.472 14.1204 17.4763 14.3725C17.4763 16.0389 17.4763 17.714 17.4763 19.3804V19.6755H20.6292V19.363C20.6292 17.8615 20.6292 16.36 20.6292 14.8672C20.6368 14.3254 20.6136 13.7835 20.5599 13.2443C20.535 12.3908 20.1908 11.5779 19.5954 10.9669C19.0001 10.3559 18.1973 9.9916 17.3463 9.94622C16.7686 9.86246 16.179 9.94149 15.6435 10.1745C15.1081 10.4075 14.6479 10.7853 14.3146 11.2655L14.1327 11.4824V10.1719H10.9884V19.6755H14.1241ZM6.07711 10.1719V19.6668H9.19541V10.1719H6.07711ZM7.72288 5.54593C7.45897 5.51696 7.19197 5.55174 6.94421 5.64732C6.69645 5.7429 6.47513 5.89649 6.29875 6.09531C6.12236 6.29414 5.99605 6.53236 5.93037 6.79011C5.86468 7.04785 5.86153 7.31765 5.92119 7.57686C5.98219 7.88109 6.13423 8.15949 6.35705 8.375C6.57987 8.59051 6.86292 8.73287 7.16852 8.78321C7.51204 8.88776 7.87897 8.88659 8.22182 8.77982C8.56466 8.67305 8.86762 8.4656 9.09147 8.18435C9.28526 7.94237 9.40276 7.6481 9.42899 7.33896C9.45521 7.02982 9.38898 6.71982 9.23872 6.44854C9.09945 6.17356 8.88602 5.94323 8.62267 5.78368C8.35931 5.62412 8.05659 5.54176 7.74887 5.54593H7.72288Z" fill="white"/>
</svg>
