<svg width="26" height="26" viewBox="0 0 26 26" fill="none" xmlns="http://www.w3.org/2000/svg">
<path d="M12.991 26C10.4198 26 7.90639 25.2375 5.76855 23.8091C3.63071 22.3806 1.96447 20.3503 0.980532 17.9749C-0.00340658 15.5994 -0.260842 12.9856 0.240766 10.4638C0.742373 7.94205 1.98049 5.62569 3.79857 3.8076C5.61665 1.98952 7.93303 0.751407 10.4548 0.249799C12.9765 -0.251808 15.5904 0.00562662 17.9658 0.989565C20.3413 1.9735 22.3716 3.63976 23.8001 5.7776C25.2285 7.91544 25.991 10.4289 25.991 13C25.991 16.4478 24.6213 19.7544 22.1833 22.1924C19.7454 24.6303 16.4388 26 12.991 26ZM5.92763 17.68L6.18763 17.7926C7.39848 18.3156 8.68648 18.6376 10.001 18.746C11.629 18.9362 13.2756 18.6087 14.707 17.81C16.0189 17.051 17.0958 15.9446 17.8191 14.6126C18.5424 13.2807 18.884 11.775 18.8063 10.2613C18.792 10.1847 18.8061 10.1055 18.846 10.0385C18.8858 9.97146 18.9488 9.92129 19.023 9.89733C19.5136 9.66618 19.9196 9.28739 20.1843 8.814L18.7369 9.04796V8.96132C19.2484 8.6449 19.6343 8.16097 19.829 7.59197C19.3956 7.74797 18.9623 7.92132 18.5376 8.04265C18.376 8.10212 18.2009 8.11498 18.0324 8.07973C17.8638 8.04449 17.7085 7.96258 17.5843 7.84334C17.2109 7.54043 16.7672 7.3365 16.2942 7.25047C15.8212 7.16443 15.3341 7.19904 14.878 7.35108C14.4219 7.50311 14.0115 7.76766 13.6847 8.12031C13.3579 8.47295 13.1252 8.90233 13.0083 9.36868C12.9303 9.79334 12.913 10.2353 12.861 10.738C10.3736 10.894 8.59696 9.45531 6.79429 7.92998C6.48862 8.56218 6.41314 9.28124 6.58084 9.96313C6.74854 10.645 7.14893 11.247 7.71296 11.6653C7.23597 11.7232 6.75262 11.6356 6.3263 11.414C6.3263 12.974 7.4443 13.624 8.5623 14.2566V14.326H7.33163C7.53173 14.8936 7.88877 15.3928 8.36128 15.7656C8.83378 16.1384 9.40235 16.3695 10.001 16.432C8.80448 17.2583 7.38165 17.6943 5.92763 17.68Z" fill="white"/>
</svg>
