<svg width="26" height="26" viewBox="0 0 26 26" fill="none" xmlns="http://www.w3.org/2000/svg">
<path fill-rule="evenodd" clip-rule="evenodd" d="M13.925 0H12.0907L10.778 0.191233C8.11565 0.655598 5.66338 1.93565 3.76023 3.85438C1.85708 5.7731 0.597067 8.23572 0.154415 10.9017C-0.372479 14.1987 0.385292 17.5721 2.2716 20.327C4.1579 23.0819 7.02903 25.0083 10.2934 25.7093C13.5577 26.4103 16.9666 25.8325 19.8177 24.095C22.6687 22.3575 24.7447 19.5925 25.6179 16.37C25.745 15.8848 25.8183 15.388 25.8915 14.8926C25.9284 14.6423 25.9653 14.3924 26.0091 14.1444C26.0042 14.0807 26.0042 14.0168 26.0091 13.9532V12.1188C25.9813 11.9345 25.9562 11.7502 25.9312 11.566C25.8936 11.2895 25.8561 11.013 25.8091 10.7365C25.2324 7.43304 23.3929 4.48355 20.6799 2.5124C18.9518 1.22905 16.9272 0.403637 14.7944 0.112968L13.925 0ZM16.8635 17.6131L12.9079 17.8392C12.5223 17.814 12.1287 17.7895 11.7298 17.7647C10.7526 17.7039 9.74376 17.6412 8.74366 17.561C8.15278 17.513 7.60102 17.2464 7.19621 16.8133C6.91291 16.4951 6.74455 16.091 6.71806 15.6658C6.41503 13.7952 6.43855 11.8862 6.78761 10.0237C6.87803 9.62076 7.11312 9.26501 7.44832 9.02388C7.95962 8.66732 8.56394 8.46791 9.18703 8.45013C10.9003 8.28606 12.6225 8.2367 14.3423 8.30235C15.4116 8.34582 16.4722 8.44143 17.5329 8.55444C17.9992 8.62475 18.4313 8.84083 18.7674 9.17171C19.0726 9.48255 19.2654 9.88643 19.315 10.3193C19.6234 12.1947 19.6057 14.1093 19.2629 15.9787C19.1797 16.3988 18.9444 16.7734 18.6022 17.0307C18.0982 17.4026 17.4898 17.6064 16.8635 17.6131ZM11.456 15.5354L15.5246 13.0317L11.456 10.5366V15.5354Z" fill="white"/>
</svg>
